<?xml version="1.0" encoding="UTF-8"?>
<svg id="Ebene_1" xmlns="http://www.w3.org/2000/svg" version="1.1" viewBox="0 0 800 800">
  <!-- Generator: Adobe Illustrator 29.0.1, SVG Export Plug-In . SVG Version: 2.1.0 Build 192)  -->
  <defs>
    <style>
      .st0 {
        fill: #fff;
      }

      .st1 {
        font-family: Rockwell-Bold, Rockwell;
        font-size: 48px;
        font-weight: 700;
      }

      .st1, .st2 {
        fill: #005bff;
      }

      .st1, .st3 {
        isolation: isolate;
      }

      .st4 {
        fill: #06f3ff;
      }

      .st5 {
        display: none;
        fill: #e6e6e6;
      }
    </style>
  </defs>
  <path class="st0" d="M452.6,191.4c-21.6-14.7-37.1-30.2-47-41.6-9.8,11.3-25.5,26.8-47.1,41.6-40.4,27.5-86.6,42.7-137.8,45.2v182c0,6.6.9,14.4,2.7,23,0,0,22.3,140.2,182.3,212.6,0,0,116.2-44,167.2-167.2,11.9-27.1,17.5-51.4,17.5-68.4v-182c-51.2-2.6-97.4-17.7-137.7-45.2h-.1Z"/>
  <path class="st5" d="M483.4,373.6l34.8-38.4h-49.5l-34.8,38.4h49.5,0ZM329.8,335.2l-34.8,38.4h49.5l34.8-38.4h-49.5ZM448.8,335.2h-49.5l-34.8,38.4h49.5l34.8-38.4ZM233.8,335.2v38.4h41.2l34.8-38.4h-76,0ZM577.3,373.6v-38.4h-39.1l-34.8,38.4h73.9Z"/>
  <path class="st2" d="M405.5,654.1c-62.8-27.2-108.3-71.2-138.4-115.2-16.3-5.5-32-11.3-47-17.3,6.3,11.9,13.4,23.8,21.3,35.2,27.9,40.5,77.9,95.8,157.7,128.5,2.1.9,4.3,1.3,6.5,1.3s4.4-.4,6.5-1.2c58-23.9,100.3-59.6,129.8-93-13-.6-26.5-1.6-40.2-3-25.9,25.3-57.7,48.2-96.1,64.8h-.1ZM696.3,432.2c-5.8-5.2-12.4-10.4-19.9-15.5-15.2-10.7-33.8-21.4-54.9-31.7v-161.9c0-9.5-7.7-17.3-17-17.3-50.4-.2-95.5-13.8-134.3-40.2-30.1-20.5-46.3-42.1-50.5-48.3-3.2-4.6-8.4-7.4-14.1-7.4s-10.9,2.7-14.1,7.3c-4.3,6.2-20.5,27.8-50.6,48.3-38.8,26.4-84.1,39.9-134.4,40.2-9.4,0-17,7.8-17,17.3v72.3c-9.7.6-18.8,1.5-27.4,2.7-19.3,2.6-35.7,6.5-49.1,11.6-22.7,8.8-35.9,21.2-39.3,36.7-3.3,14.8,2.8,30.8,18,47.5h0c.3.4.5.7.9,1,14.1,15.2,35.5,30.6,63.7,46,1.9,1,3.8,2.1,5.8,3.1,10.5,5.5,21.7,11,33.5,16.2,3.4,13,8.3,26.5,14.3,40.2,13.9,6,28.6,11.8,44,17.3-8.3-14.4-15-28.5-20.2-41.8,43.2,16.5,92.1,31,143.6,42.4,57.8,12.8,114.4,20.6,164.9,23-7.9,11.3-16.7,22.6-26.6,33.5,13.4,1.1,26.4,1.9,39,2.3,5.6-7.1,10.6-14,15.1-20.5,3.3-4.8,6.4-9.6,9.5-14.5,10.9,0,21.3-.4,31.3-1.1,26.2-1.7,48.4-5.4,66.1-10.9,3.9-1.2,7.6-2.5,11-3.9,6.8-2.7,12.7-5.9,17.7-9.2-2.6-4.4-5.9-8.6-9.5-12.6-5.2,3.4-11.6,6.5-19.3,9.1-17,5.9-39.8,10.1-67.1,11.9-6.8.5-13.8.8-21.1.9,20.9-38.1,33.3-77.4,33.3-107.9v-16.2c21.9,11.1,40.5,22.5,54.9,33.7,3.4,2.7,6.6,5.2,9.5,7.9,12.7,11.3,27.2,28,23.9,43-.5,2.3-1.5,4.5-2.8,6.7,4,4.3,7.3,8.6,10,12.8,4.1-4.9,6.7-10.3,8-16.2,3.9-18-5.8-37.5-28.8-58h0v.2ZM163.7,427c-.5-.3-1.2-.6-1.7-.9-26.5-14.6-46.6-29.5-59-43.2h-.2c-4.9-5-8.1-10.5-9.3-12.6-4.4-7.6-6.1-14.5-4.7-20.8,3.8-17.1,30.5-29.9,73.1-35.9,8.5-1.2,17.7-2.1,27.4-2.7v107.7c0,7,.7,14.6,2,22.5-9.7-4.6-19-9.3-27.7-14.1h.1ZM590.3,418.6c0,24.8-12.1,65.5-38.1,107.6-51.9-1.8-110.9-9.7-171.5-23.1-55.7-12.3-108.3-28.3-153.6-46.5-4.3-14.7-6.4-27.7-6.4-38v-182c51.2-2.6,97.4-17.7,137.8-45.2,21.6-14.7,37.2-30.2,47.1-41.6,9.8,11.3,25.4,26.8,47,41.6,40.3,27.5,86.6,42.7,137.7,45.2v182h0Z"/>
  <path class="st4" d="M189.2,346.3c-31.3,2-57,6.8-76.2,14.3-7.5,2.9-14,6.2-19.4,9.9,2.3,4.1,5.5,8.2,9.5,12.6,16.6-10.9,46.5-18.4,86.2-21v-15.8h0Z"/>
  <path class="st4" d="M93.5,370.4c1.2,2.1,4.5,7.6,9.3,12.6h.2c-3.8-4.3-7-8.4-9.5-12.5h0ZM717,506.4c-2.7-4.2-6.1-8.5-10-12.8-3.2-3.4-6.7-7-10.7-10.5-17.8-15.9-43.8-32.2-75.8-47.7-.3,2.1-1.7,11.5-2.7,16.2,28.7,14.3,52,29.1,68,43.3,3.3,2.9,6.6,6.2,9.8,9.6,3.6,3.9,6.9,8.2,9.5,12.6,4,6.8,6.2,14,4.7,20.8-4.5,20.4-42.1,34.8-100.5,38.7-17,1.1-35.5,1.3-54.8.7-12.6-.4-25.6-1.2-39-2.3-42.3-3.5-88.1-10.5-134.8-20.9-45.1-10-88-22.3-126.8-36.3-15.4-5.5-30.1-11.3-44-17.3-16.6-7.2-32-14.7-46.1-22.3-51.3-28-79.3-57-74.8-77.4.5-2.3,1.5-4.6,2.8-6.7h0c-.7-.8-5.2-5.3-10-12.8-4.1,4.9-6.7,10.3-8,16.2-3.4,15.2,3,31.5,19,48.5,14.1,15.2,35.5,30.6,63.7,46,19.1,10.4,40.5,20.5,63.9,29.8,14.9,6,30.6,11.8,47,17.3,34.4,11.6,71.5,21.9,110.1,30.4,42.8,9.5,84.9,16.2,124.4,20.1,13.7,1.3,27.2,2.3,40.2,3,11.5.5,22.6.9,33.4.9s24-.4,35.2-1.1c32-2.1,57.9-7.1,77.1-14.8,21.6-8.8,34.3-20.9,37.7-36,2.4-11.1-.3-22.7-8.1-34.8h0l-.4-.4Z"/>
  <path class="st4" d="M91.7,393.8h0Z"/>
  <g class="st3">
    <text class="st1" transform="translate(258.4 364.7)"><tspan x="0" y="0">BITCIRCUIT</tspan></text>
  </g>
</svg>